<svg width="78" height="815" viewBox="0 0 78 815" fill="none" xmlns="http://www.w3.org/2000/svg">
<path d="M54.91 30.438V41.307C54.91 41.307 55.015 44.042 52.085 44.042C49.016 44.042 48.96 41.307 48.96 41.307V34.891C48.96 34.651 48.624 32.982 46.641 32.982C44.016 32.982 43.971 34.859 43.971 34.859V54.08C43.971 54.08 44 55.943 41.507 55.943C39 55.943 39 53.96 39 53.96V40.016C39 40.016 39 37.071 35.195 37.071C31.141 37.071 31.228 40.196 31.228 40.196V43.924C31.228 43.924 31.107 46.869 26.54 46.869C21.973 46.869 21.912 42.36 21.912 42.36V29.938C20.168 28.976 17 26.671 17 26.671V56.003C17 56.003 19.988 65 39 65C58.012 65 61 56.305 61 56.305V26.671C58.062 29.5 54.91 30.438 54.91 30.438Z" fill="white"/>
<path fill-rule="evenodd" clip-rule="evenodd" d="M39 0C18.688 0 17 19.875 17 19.875V22.937C25.438 29.188 39 29 39 29C39 29 52.562 29.188 61 22.938V19.876C61 19.876 59.312 0 39 0ZM39 25C27.25 25 24.688 22.625 24.688 22.625C30.938 19.75 39 19.875 39 19.875C39 19.875 47.062 19.75 53.312 22.625C53.312 22.625 50.75 25 39 25ZM21.312 15.563C21.312 15.563 29.438 12.625 39 12.625C48.562 12.625 56.688 15.562 56.688 15.562C52.125 2.624 39 3.062 39 3.062C39 3.062 25.875 2.625 21.312 15.563Z" fill="white"/>
<path fill-rule="evenodd" clip-rule="evenodd" d="M3.6445 188C1.7085 188 1.5415 190.041 1.5415 190.041V205.853C1.5415 208.789 4.4445 208.855 4.4445 208.855H13.4515C15.3865 208.855 15.0525 210.189 15.0525 210.189C15.0525 210.189 12.5835 223.199 12.3175 225.4C12.0505 227.603 10.4495 229.004 10.4495 229.004C10.4495 229.004 8.3145 230.205 7.4475 230.672C6.5805 231.139 6.5805 232.873 6.5805 232.873H37.4695V232.139C37.4695 230.672 30.9975 229.004 28.3965 228.737C25.7945 228.471 26.3285 226.735 26.3285 226.735L27.3955 218.93H30.3975L31.5315 211.057H28.5295L28.8605 208.32L37.4695 208.189C43.2745 207.588 47.4775 204.119 47.4775 204.119V192.109C42.8745 188.84 35.5345 188 35.5345 188H3.6445ZM61.9285 196.016H75.4165C75.9915 196.016 76.4585 197.128 76.4585 198.5C76.4585 199.872 75.9915 200.984 75.4165 200.984H61.9285C61.3075 203.271 59.8565 204.875 58.1665 204.875H50.6245V192.125H58.1665C59.8575 192.125 61.3075 193.729 61.9285 196.016ZM8.4485 249C6.5805 249 6.5805 246.949 6.5805 246.949V235.942H37.4695V247.016C37.4695 248.816 35.4685 249 35.4685 249H8.4485ZM37.5415 192.969V192.938C37.5415 192.388 37.0915 191.938 36.5415 191.938H6.5725C6.0225 191.938 5.5725 192.388 5.5725 192.938V192.969C5.5725 193.519 6.0225 193.969 6.5725 193.969H36.5415C37.0915 193.969 37.5415 193.519 37.5415 192.969Z" fill="white"/>
<path fill-rule="evenodd" clip-rule="evenodd" d="M0.0197754 417.875C0.0197754 408.968 7.23978 401.749 16.1448 401.749C25.0508 401.749 32.2708 408.968 32.2698 417.875C32.2698 426.78 25.0498 434 16.1448 434C7.23978 434 0.0197754 426.78 0.0197754 417.875ZM10.9777 423.042C12.348 424.413 14.2068 425.182 16.1448 425.182C18.0828 425.182 19.9415 424.413 21.3119 423.042C22.6823 421.672 23.452 419.813 23.4518 417.875C23.4518 413.839 20.1803 410.568 16.1448 410.568C12.1092 410.568 8.83778 413.839 8.83778 417.875C8.83751 419.813 9.60727 421.672 10.9777 423.042ZM60.8738 417.874C56.4213 417.874 52.8118 421.483 52.8118 425.936C52.8118 428.816 54.3484 431.478 56.8428 432.918C59.3372 434.358 62.4104 434.358 64.9048 432.918C67.3992 431.478 68.9358 428.816 68.9358 425.936C68.9363 423.798 68.0871 421.747 66.5751 420.235C65.063 418.723 63.0121 417.873 60.8738 417.874ZM55.8118 425.936C55.8112 428.732 58.0776 430.999 60.8738 431C63.67 431.001 65.9372 428.734 65.9378 425.938C65.9383 423.142 63.672 420.875 60.8758 420.874C58.0796 420.873 55.8123 423.14 55.8118 425.936Z" fill="white"/>
<path fill-rule="evenodd" clip-rule="evenodd" d="M75.4568 403.313C75.8948 406.625 77.9178 421.727 77.9178 421.727C77.9178 421.727 78.6608 424.875 75.0198 424.875H73.0648C72.6758 418.473 67.3748 413.396 60.8738 413.396C54.3728 413.396 49.0728 418.473 48.6828 424.875H38.5188C39.2098 422.664 39.5828 420.313 39.5828 417.875C39.5828 404.929 29.0888 394.436 16.1448 394.436C11.4848 394.429 6.92947 395.817 3.06578 398.422C3.02078 395.463 3.02378 384.537 5.33178 378.167C5.33178 378.167 6.39478 375.625 8.76978 375C11.1448 374.375 33.5198 372 33.5198 372C33.5198 372 35.8338 372.062 36.6458 373.875C37.4578 375.688 47.2078 395.75 47.2078 395.75L59.0198 397.128V391.833H63.0198V386H66.0198V397.946L71.8318 398.625C71.8318 398.625 74.9098 399.172 75.4568 403.313ZM16.1448 391.833H23.1028V378.167H16.1448V391.833ZM33.1028 391.833H26.1448V378.167H33.1028V391.833ZM49.0198 408H53.0358V401H49.0198V408ZM60.0358 408H56.0198V401H60.0358V408ZM63.0198 408H67.0358V401H63.0198V408Z" fill="white"/>
<path fill-rule="evenodd" clip-rule="evenodd" d="M67.8393 577.549C67.2729 576.796 66.3854 576.353 65.4433 576.354H26.7733L24.2983 568.969H12.5573C10.9005 568.969 9.55734 570.312 9.55734 571.969C9.55734 573.626 10.9005 574.969 12.5573 574.969H19.9813L33.4813 615.254H58.6403C60.2972 615.254 61.6403 613.911 61.6403 612.254C61.6403 610.597 60.2972 609.254 58.6403 609.254H37.7983L36.0723 604.105H59.1923C60.5304 604.105 61.7067 603.219 62.0763 601.933L68.3263 580.183C68.586 579.277 68.4057 578.302 67.8393 577.549ZM60.0583 587.23H55.2483V582.354H61.4593L60.0583 587.23ZM42.4413 582.354V587.229H49.2483V582.354H42.4413ZM49.2483 593.23V598.105H42.4413V593.23H49.2483ZM36.4413 587.229V582.354H28.7843L30.4183 587.229H36.4413ZM32.4283 593.23H36.4413V598.105H34.0623L32.4283 593.23ZM55.2483 593.23V598.105H56.9333L58.3343 593.23H55.2483Z" fill="white"/>
<path d="M36.9053 628.879C40.0981 628.879 42.6863 626.29 42.6863 623.098C42.6863 619.905 40.0981 617.317 36.9053 617.317C33.7126 617.317 31.1243 619.905 31.1243 623.098C31.1243 626.29 33.7126 628.879 36.9053 628.879Z" fill="white"/>
<path d="M54.3433 628.879C57.5361 628.879 60.1243 626.29 60.1243 623.098C60.1243 619.905 57.5361 617.317 54.3433 617.317C51.1506 617.317 48.5623 619.905 48.5623 623.098C48.5623 626.29 51.1506 628.879 54.3433 628.879Z" fill="white"/>
<path d="M38.8343 566.703L46.3813 572.195C46.8172 572.513 47.3638 572.64 47.8954 572.547C48.427 572.454 48.8977 572.148 49.1993 571.701C49.8453 570.765 49.6293 569.469 48.7193 568.806L46.3463 567.08L55.7823 561.99L60.4103 574.004H64.7573L58.7133 558.313C58.5064 557.769 58.0786 557.339 57.5363 557.13C56.999 556.924 56.3988 556.964 55.8933 557.239L42.6453 564.386L39.6233 562.187C38.7545 561.553 37.539 561.726 36.8813 562.577L28.4003 573.375C28.2301 573.559 28.0931 573.772 27.9953 574.003H33.1013L38.8343 566.703Z" fill="white"/>
<path d="M25.983 814.879C30.1251 814.879 33.483 811.521 33.483 807.379C33.483 803.237 30.1251 799.879 25.983 799.879C21.8409 799.879 18.483 803.237 18.483 807.379C18.483 811.521 21.8409 814.879 25.983 814.879Z" fill="white"/>
<path d="M59.982 814.879C64.1241 814.879 67.482 811.521 67.482 807.379C67.482 803.237 64.1241 799.879 59.982 799.879C55.8399 799.879 52.482 803.237 52.482 807.379C52.482 811.521 55.8399 814.879 59.982 814.879Z" fill="white"/>
<path fill-rule="evenodd" clip-rule="evenodd" d="M11.062 751.879H64C64 751.879 78 766.691 78 785.567V800.817C78 800.817 77.812 804.879 74.875 804.88H73.166C71.992 798.619 66.507 793.88 59.906 793.88C53.306 793.88 47.82 798.619 46.646 804.88H39.242C38.068 798.619 32.583 793.88 25.983 793.88C19.383 793.88 13.897 798.619 12.724 804.88H10.625C10.625 804.88 8.061 804.256 8.061 801.068V785.453L22.812 784.693C22.812 784.693 28.295 784.09 29.102 780.937L5.446 779.683C3.58204 779.683 2.071 778.172 2.071 776.308C2.071 774.444 3.58204 772.933 5.446 772.933H14.502L22.812 772.505C22.812 772.505 30.989 771.897 31.75 768.7L31.554 768.657L3.469 766.817C1.55312 766.817 0 765.264 0 763.348C0 761.432 1.55312 759.879 3.469 759.879H8.062V755.004C8.062 755.004 7.874 751.879 11.062 751.879ZM52 760.817V775.817H67.812L62.062 760.817H52Z" fill="white"/>
</svg>
