<svg width="17" height="135" viewBox="0 0 17 135" fill="none" xmlns="http://www.w3.org/2000/svg">
<path fill-rule="evenodd" clip-rule="evenodd" d="M13.458 12.044L17 15.586L15.586 17L12.044 13.458C10.782 14.421 9.21 15 7.5 15C3.35786 15 0 11.6421 0 7.5C0 3.35786 3.35786 0 7.5 0C11.6421 0 15 3.35786 15 7.5C15.0001 9.14309 14.4581 10.7403 13.458 12.044ZM7.5 2C4.467 2 2 4.467 2 7.5C2.00331 10.5362 4.4638 12.9967 7.5 13C10.532 13 13 10.532 13 7.5C13 4.467 10.532 2 7.5 2Z" fill="white" fill-opacity="0.3"/>
<path fill-rule="evenodd" clip-rule="evenodd" d="M13.458 71.044L17 74.586L15.586 76L12.044 72.458C10.782 73.421 9.21 74 7.5 74C3.35786 74 0 70.6421 0 66.5C0 62.3579 3.35786 59 7.5 59C11.6421 59 15 62.3579 15 66.5C15.0001 68.1431 14.4581 69.7403 13.458 71.044ZM7.5 61C4.467 61 2 63.467 2 66.5C2.00331 69.5362 4.4638 71.9967 7.5 72C10.532 72 13 69.532 13 66.5C13 63.467 10.532 61 7.5 61Z" fill="white"/>
<path fill-rule="evenodd" clip-rule="evenodd" d="M13.458 130.044L17 133.586L15.586 135L12.044 131.458C10.782 132.421 9.21 133 7.5 133C3.35786 133 0 129.642 0 125.5C0 121.358 3.35786 118 7.5 118C11.6421 118 15 121.358 15 125.5C15.0001 127.143 14.4581 128.74 13.458 130.044ZM7.5 120C4.467 120 2 122.467 2 125.5C2.00331 128.536 4.4638 130.997 7.5 131C10.532 131 13 128.532 13 125.5C13 122.467 10.532 120 7.5 120Z" fill="#EE3643"/>
</svg>
