<svg width="20" height="79" viewBox="0 0 20 79" fill="none" xmlns="http://www.w3.org/2000/svg">
<path d="M14.1667 8.5L5.71429 0V6H0V11H5.71429V17L14.1667 8.5Z" fill="#C5C5C5"/>
<path d="M16.1771 15.01H11.3895V17H16.1771C18.2514 17 19.0381 15.19 19.0619 13.974V3.028C19.0381 1.811 18.2514 0 16.1771 0H11.3895V1.99H16.1771C16.9762 1.99 17.1219 2.671 17.139 3.047V13.951C17.1229 14.327 16.9762 15.01 16.1771 15.01Z" fill="#C5C5C5"/>
<path d="M14.1667 70.5L5.71429 62V68H0V73H5.71429V79L14.1667 70.5Z" fill="#3D546F"/>
<path d="M16.1771 77.01H11.3895V79H16.1771C18.2514 79 19.0381 77.19 19.0619 75.974V65.028C19.0381 63.811 18.2514 62 16.1771 62H11.3895V63.99H16.1771C16.9762 63.99 17.1219 64.671 17.139 65.047V75.951C17.1229 76.327 16.9762 77.01 16.1771 77.01Z" fill="#3D546F"/>
</svg>
