<svg width="14" height="74" viewBox="0 0 14 74" fill="none" xmlns="http://www.w3.org/2000/svg">
<path opacity="0.3" d="M14 15.4065C14 15.9714 13.632 16.1676 13.182 15.844L7.819 11.977C7.369 11.6535 6.632 11.6535 6.182 11.977L0.818 15.844C0.368 16.1676 0 15.9714 0 15.4065V1.0271C0 0.462195 0.45 0 1 0H13C13.55 0 14 0.462195 14 1.0271V15.4065Z" fill="white"/>
<path d="M14 73.4065C14 73.9714 13.632 74.1676 13.182 73.844L7.819 69.977C7.369 69.6535 6.632 69.6535 6.182 69.977L0.818 73.844C0.368 74.1676 0 73.9714 0 73.4065V59.0271C0 58.4622 0.45 58 1 58H13C13.55 58 14 58.4622 14 59.0271V73.4065Z" fill="white"/>
</svg>
